{
	"asset":
	{
		"version": "2.0",
		"generator": "Unreal Engine 5.4.4"
	},
	"scene": 0,
	"accessors": [
		{
			"bufferView": 0,
			"count": 906,
			"type": "SCALAR",
			"componentType": 5123
		},
		{
			"bufferView": 1,
			"count": 582,
			"type": "VEC3",
			"componentType": 5126,
			"min": [ 102.626266, 2.27677679, -78.2595978 ],
			"max": [ 131.025223, 18.5908871, -16.5945168 ]
		},
		{
			"bufferView": 2,
			"count": 582,
			"type": "VEC3",
			"componentType": 5126
		},
		{
			"bufferView": 3,
			"count": 582,
			"type": "VEC4",
			"componentType": 5126
		},
		{
			"bufferView": 4,
			"count": 582,
			"type": "VEC2",
			"componentType": 5126
		},
		{
			"bufferView": 5,
			"count": 582,
			"type": "VEC2",
			"componentType": 5126
		},
		{
			"bufferView": 6,
			"count": 3669,
			"type": "SCALAR",
			"componentType": 5123
		},
		{
			"bufferView": 7,
			"count": 1923,
			"type": "VEC3",
			"componentType": 5126,
			"min": [ 102.65773, 2.27677679, -78.4026184 ],
			"max": [ 131.236145, 18.8018093, -14.6987638 ]
		},
		{
			"bufferView": 8,
			"count": 1923,
			"type": "VEC3",
			"componentType": 5126
		},
		{
			"bufferView": 9,
			"count": 1923,
			"type": "VEC4",
			"componentType": 5126
		},
		{
			"bufferView": 10,
			"count": 1923,
			"type": "VEC2",
			"componentType": 5126
		},
		{
			"bufferView": 11,
			"count": 1923,
			"type": "VEC2",
			"componentType": 5126
		},
		{
			"bufferView": 12,
			"count": 25161,
			"type": "SCALAR",
			"componentType": 5123
		},
		{
			"bufferView": 13,
			"count": 15226,
			"type": "VEC3",
			"componentType": 5126,
			"min": [ 102.554604, 2.27677679, -78.4026184 ],
			"max": [ 131.333725, 18.8018093, -14.6987638 ]
		},
		{
			"bufferView": 14,
			"count": 15226,
			"type": "VEC3",
			"componentType": 5126
		},
		{
			"bufferView": 15,
			"count": 15226,
			"type": "VEC4",
			"componentType": 5126
		},
		{
			"bufferView": 16,
			"count": 15226,
			"type": "VEC2",
			"componentType": 5126
		},
		{
			"bufferView": 17,
			"count": 15226,
			"type": "VEC2",
			"componentType": 5126
		}
	],
	"buffers": [
		{
			"uri": "IAE.bin",
			"byteLength": 1052412
		}
	],
	"bufferViews": [
		{
			"buffer": 0,
			"byteLength": 1812,
			"target": 34963
		},
		{
			"buffer": 0,
			"byteLength": 6984,
			"byteOffset": 1812,
			"target": 34962
		},
		{
			"buffer": 0,
			"byteLength": 6984,
			"byteOffset": 8796,
			"target": 34962
		},
		{
			"buffer": 0,
			"byteLength": 9312,
			"byteOffset": 15780,
			"target": 34962
		},
		{
			"buffer": 0,
			"byteLength": 4656,
			"byteOffset": 25092,
			"target": 34962
		},
		{
			"buffer": 0,
			"byteLength": 4656,
			"byteOffset": 29748,
			"target": 34962
		},
		{
			"buffer": 0,
			"byteLength": 7338,
			"byteOffset": 34404,
			"target": 34963
		},
		{
			"buffer": 0,
			"byteLength": 23076,
			"byteOffset": 41744,
			"target": 34962
		},
		{
			"buffer": 0,
			"byteLength": 23076,
			"byteOffset": 64820,
			"target": 34962
		},
		{
			"buffer": 0,
			"byteLength": 30768,
			"byteOffset": 87896,
			"target": 34962
		},
		{
			"buffer": 0,
			"byteLength": 15384,
			"byteOffset": 118664,
			"target": 34962
		},
		{
			"buffer": 0,
			"byteLength": 15384,
			"byteOffset": 134048,
			"target": 34962
		},
		{
			"buffer": 0,
			"byteLength": 50322,
			"byteOffset": 149432,
			"target": 34963
		},
		{
			"buffer": 0,
			"byteLength": 182712,
			"byteOffset": 199756,
			"target": 34962
		},
		{
			"buffer": 0,
			"byteLength": 182712,
			"byteOffset": 382468,
			"target": 34962
		},
		{
			"buffer": 0,
			"byteLength": 243616,
			"byteOffset": 565180,
			"target": 34962
		},
		{
			"buffer": 0,
			"byteLength": 121808,
			"byteOffset": 808796,
			"target": 34962
		},
		{
			"buffer": 0,
			"byteLength": 121808,
			"byteOffset": 930604,
			"target": 34962
		}
	],
	"images": [
		{
			"uri": "M_Metal_Chrome_BaseColor.png"
		},
		{
			"uri": "Concrete_Panels_01_Metallic-Concrete_Panels_01_Roughness1.png"
		},
		{
			"uri": "Concrete_Panels_01_Normal1.png"
		}
	],
	"materials": [
		{
			"name": "M_Metal_Chrome",
			"pbrMetallicRoughness":
			{
				"baseColorTexture":
				{
					"index": 0
				},
				"roughnessFactor": 0.25
			}
		},
		{
			"name": "Concrete_Panels_Vert",
			"pbrMetallicRoughness":
			{
				"baseColorFactor": [ 0.081272997, 0.229166999, 0.0472880006, 1 ],
				"metallicRoughnessTexture":
				{
					"index": 1
				}
			},
			"normalTexture":
			{
				"index": 2
			},
			"doubleSided": true
		},
		{
			"name": "Concrete_Panels_Maron",
			"pbrMetallicRoughness":
			{
				"baseColorFactor": [ 0.046875, 0.00839699991, 0.00646399986, 1 ],
				"metallicRoughnessTexture":
				{
					"index": 3
				}
			},
			"normalTexture":
			{
				"index": 4
			},
			"doubleSided": true
		}
	],
	"meshes": [
		{
			"name": "IAR",
			"primitives": [
				{
					"attributes":
					{
						"POSITION": 1,
						"NORMAL": 2,
						"TANGENT": 3,
						"TEXCOORD_0": 4,
						"TEXCOORD_1": 5
					},
					"indices": 0,
					"material": 0
				},
				{
					"attributes":
					{
						"POSITION": 7,
						"NORMAL": 8,
						"TANGENT": 9,
						"TEXCOORD_0": 10,
						"TEXCOORD_1": 11
					},
					"indices": 6,
					"material": 1
				},
				{
					"attributes":
					{
						"POSITION": 13,
						"NORMAL": 14,
						"TANGENT": 15,
						"TEXCOORD_0": 16,
						"TEXCOORD_1": 17
					},
					"indices": 12,
					"material": 2
				}
			]
		}
	],
	"nodes": [
		{
			"name": "IAR",
			"mesh": 0
		}
	],
	"samplers": [
		{
			"minFilter": 9987,
			"magFilter": 9729
		}
	],
	"scenes": [
		{
			"name": "MapMenuPrincipal",
			"nodes": [ 0 ]
		}
	],
	"textures": [
		{
			"name": "M_Metal_Chrome_BaseColor",
			"sampler": 0,
			"source": 0
		},
		{
			"name": "Concrete_Panels_01_Metallic-Concrete_Panels_01_Roughness1",
			"sampler": 0,
			"source": 1
		},
		{
			"name": "Concrete_Panels_01_Normal1",
			"sampler": 0,
			"source": 2
		},
		{
			"name": "Concrete_Panels_01_Metallic-Concrete_Panels_01_Roughness12",
			"sampler": 0,
			"source": 1
		},
		{
			"name": "Concrete_Panels_01_Normal12",
			"sampler": 0,
			"source": 2
		}
	]
}